<svg id="Group_175" data-name="Group 175" xmlns="http://www.w3.org/2000/svg" width="17.069" height="17.069" viewBox="0 0 17.069 17.069">
  <path id="Path_4" data-name="Path 4" d="M1109.549,507.945H1101.9a4.715,4.715,0,0,0-4.71,4.71V520.3a4.715,4.715,0,0,0,4.71,4.71h7.648a4.716,4.716,0,0,0,4.711-4.71v-7.648a4.715,4.715,0,0,0-4.711-4.71Zm3.2,12.358a3.2,3.2,0,0,1-3.2,3.2H1101.9a3.2,3.2,0,0,1-3.2-3.2v-7.648a3.2,3.2,0,0,1,3.2-3.2h7.648a3.2,3.2,0,0,1,3.2,3.2Zm0,0" transform="translate(-1097.191 -507.945)" fill="#fff"/>
  <path id="Path_5" data-name="Path 5" d="M1112.8,519.157a4.4,4.4,0,1,0,4.4,4.4,4.4,4.4,0,0,0-4.4-4.4Zm0,7.281a2.884,2.884,0,1,1,2.884-2.884,2.887,2.887,0,0,1-2.884,2.884Zm0,0" transform="translate(-1104.266 -515.02)" fill="#fff"/>
  <path id="Path_6" data-name="Path 6" d="M1130.845,515.676a1.11,1.11,0,1,0,.785.325,1.115,1.115,0,0,0-.785-.325Zm0,0" transform="translate(-1117.728 -512.824)" fill="#fff"/>
</svg>
