<svg xmlns="http://www.w3.org/2000/svg" width="122" height="122" viewBox="0 0 122 122">
  <path id="Subtraction_16" data-name="Subtraction 16" d="M-2165-3406a60.618,60.618,0,0,1-23.744-4.794,61.009,61.009,0,0,1-10.362-5.624,61.436,61.436,0,0,1-9.028-7.448,61.436,61.436,0,0,1-7.448-9.028,61.009,61.009,0,0,1-5.624-10.362A60.618,60.618,0,0,1-2226-3467a60.618,60.618,0,0,1,4.794-23.744,60.992,60.992,0,0,1,5.624-10.362,61.421,61.421,0,0,1,7.448-9.028,61.421,61.421,0,0,1,9.028-7.448,61.014,61.014,0,0,1,10.362-5.625A60.623,60.623,0,0,1-2165-3528a60.62,60.62,0,0,1,23.744,4.793,60.994,60.994,0,0,1,10.361,5.625,61.447,61.447,0,0,1,9.028,7.448,61.43,61.43,0,0,1,7.448,9.028,60.99,60.99,0,0,1,5.624,10.362A60.618,60.618,0,0,1-2104-3467a60.618,60.618,0,0,1-4.794,23.744,60.99,60.99,0,0,1-5.624,10.362,61.429,61.429,0,0,1-7.448,9.028,61.461,61.461,0,0,1-9.028,7.448,60.988,60.988,0,0,1-10.361,5.624A60.616,60.616,0,0,1-2165-3406Zm-13-78.5h0v35l30-17.5-30-17.5Z" transform="translate(2226 3528)" fill="#fff"/>
</svg>
