<svg id="Group_176" data-name="Group 176" xmlns="http://www.w3.org/2000/svg" width="20.69" height="16.806" viewBox="0 0 20.69 16.806">
  <path id="Path_7" data-name="Path 7" d="M1035.529,510.289a8.487,8.487,0,0,1-2.437.671,4.275,4.275,0,0,0,1.868-2.35,8.46,8.46,0,0,1-2.7,1.03,4.243,4.243,0,0,0-7.336,2.9,4.41,4.41,0,0,0,.108.967,12.05,12.05,0,0,1-8.751-4.434,4.244,4.244,0,0,0,1.313,5.663,4.181,4.181,0,0,1-1.918-.53v.052a4.256,4.256,0,0,0,3.4,4.167,4.383,4.383,0,0,1-1.117.143,4.286,4.286,0,0,1-.8-.074,4.26,4.26,0,0,0,3.965,2.948,8.532,8.532,0,0,1-5.272,1.811,9.1,9.1,0,0,1-1.01-.056,12.071,12.071,0,0,0,18.581-10.165l-.013-.549a8.56,8.56,0,0,0,2.122-2.2Zm0,0" transform="translate(-1014.839 -508.301)" fill="#fff"/>
</svg>
